<svg xmlns="http://www.w3.org/2000/svg" viewBox="0 0 800 500" width="800" height="500" role="img" aria-label="Página de inicio del portafolio web personal">
  <rect width="800" height="500" fill="#eef2ff" />

  <rect x="40" y="36" width="720" height="428" rx="16" fill="#ffffff" stroke="#e2e8f0" stroke-width="2" />

  <!-- Navbar -->
  <rect x="40" y="36" width="720" height="56" rx="16" fill="#ffffff" />
  <rect x="40" y="88" width="720" height="2" fill="#e2e8f0" />
  <rect x="72" y="56" width="28" height="18" rx="6" fill="#4f46e5" />
  <rect x="110" y="60" width="86" height="10" rx="5" fill="#0f172a" />
  <g fill="#cbd5e1">
    <rect x="404" y="60" width="44" height="10" rx="5" />
    <rect x="464" y="60" width="54" height="10" rx="5" />
    <rect x="534" y="60" width="46" height="10" rx="5" />
    <rect x="596" y="60" width="60" height="10" rx="5" />
  </g>
  <circle cx="704" cy="64" r="14" fill="#f1f5f9" stroke="#e2e8f0" stroke-width="2" />

  <!-- Hero -->
  <rect x="72" y="128" width="130" height="20" rx="10" fill="#e0e7ff" />
  <rect x="72" y="168" width="290" height="30" rx="8" fill="#0f172a" />
  <rect x="72" y="212" width="220" height="14" rx="7" fill="#4f46e5" />
  <rect x="72" y="244" width="330" height="10" rx="5" fill="#cbd5e1" />
  <rect x="72" y="264" width="280" height="10" rx="5" fill="#cbd5e1" />
  <rect x="72" y="298" width="120" height="34" rx="17" fill="#4f46e5" />
  <rect x="204" y="298" width="120" height="34" rx="17" fill="#ffffff" stroke="#cbd5e1" stroke-width="2" />

  <!-- Avatar del hero -->
  <rect x="520" y="128" width="200" height="200" rx="18" fill="#e0e7ff" stroke="#c7d2fe" stroke-width="2" />
  <circle cx="620" cy="206" r="42" fill="#fcd9c0" />
  <path d="M578 190c0-26 19-42 42-42s42 16 42 42c0-12-14-17-30-17-13 0-20 5-31 5s-23 4-23 12z" fill="#2b2118" />
  <path d="M566 328c0-32 24-54 54-54s54 22 54 54z" fill="#4f46e5" />

  <!-- Tarjetas de proyectos -->
  <g>
    <rect x="72" y="364" width="196" height="76" rx="12" fill="#f8fafc" stroke="#e2e8f0" stroke-width="2" />
    <rect x="92" y="384" width="90" height="10" rx="5" fill="#0f172a" />
    <rect x="92" y="406" width="140" height="8" rx="4" fill="#cbd5e1" />

    <rect x="292" y="364" width="196" height="76" rx="12" fill="#f8fafc" stroke="#e2e8f0" stroke-width="2" />
    <rect x="312" y="384" width="110" height="10" rx="5" fill="#0f172a" />
    <rect x="312" y="406" width="128" height="8" rx="4" fill="#cbd5e1" />

    <rect x="512" y="364" width="208" height="76" rx="12" fill="#f8fafc" stroke="#e2e8f0" stroke-width="2" />
    <rect x="532" y="384" width="96" height="10" rx="5" fill="#0f172a" />
    <rect x="532" y="406" width="150" height="8" rx="4" fill="#cbd5e1" />
  </g>
</svg>
