<svg xmlns="http://www.w3.org/2000/svg" viewBox="0 0 800 500" width="800" height="500" role="img" aria-label="Documentación interactiva de la API REST de biblioteca">
  <rect width="800" height="500" fill="#0f172a" />

  <rect x="40" y="36" width="720" height="428" rx="16" fill="#111827" stroke="#1f2937" stroke-width="2" />
  <rect x="40" y="36" width="720" height="44" rx="16" fill="#1f2937" />
  <rect x="40" y="64" width="720" height="16" fill="#1f2937" />
  <g fill="#4b5563">
    <circle cx="68" cy="58" r="5" />
    <circle cx="86" cy="58" r="5" />
    <circle cx="104" cy="58" r="5" />
  </g>
  <rect x="132" y="50" width="180" height="16" rx="8" fill="#374151" />

  <!-- Cabecera de la documentación -->
  <rect x="72" y="106" width="200" height="16" rx="8" fill="#0d9488" />
  <rect x="72" y="136" width="330" height="10" rx="5" fill="#374151" />

  <!-- Endpoints -->
  <g>
    <rect x="72" y="176" width="656" height="52" rx="10" fill="#1f2937" />
    <rect x="94" y="192" width="64" height="20" rx="6" fill="#16a34a" />
    <rect x="174" y="196" width="180" height="12" rx="6" fill="#4b5563" />
    <rect x="560" y="196" width="146" height="12" rx="6" fill="#374151" />

    <rect x="72" y="240" width="656" height="52" rx="10" fill="#1f2937" />
    <rect x="94" y="256" width="64" height="20" rx="6" fill="#2563eb" />
    <rect x="174" y="260" width="220" height="12" rx="6" fill="#4b5563" />
    <rect x="560" y="260" width="146" height="12" rx="6" fill="#374151" />

    <rect x="72" y="304" width="656" height="52" rx="10" fill="#1f2937" />
    <rect x="94" y="320" width="64" height="20" rx="6" fill="#ca8a04" />
    <rect x="174" y="324" width="150" height="12" rx="6" fill="#4b5563" />
    <rect x="560" y="324" width="146" height="12" rx="6" fill="#374151" />

    <rect x="72" y="368" width="656" height="52" rx="10" fill="#1f2937" />
    <rect x="94" y="384" width="64" height="20" rx="6" fill="#dc2626" />
    <rect x="174" y="388" width="196" height="12" rx="6" fill="#4b5563" />
    <rect x="560" y="388" width="146" height="12" rx="6" fill="#374151" />
  </g>
</svg>
